<?xml version="1.0" encoding="UTF-8" standalone="no"?>
<!DOCTYPE svg PUBLIC "-//W3C//DTD SVG 1.1//EN" "http://www.w3.org/Graphics/SVG/1.1/DTD/svg11.dtd">
<svg width="100%" height="100%" viewBox="0 0 788 788" version="1.1" xmlns="http://www.w3.org/2000/svg" xmlns:xlink="http://www.w3.org/1999/xlink" xml:space="preserve" xmlns:serif="http://www.serif.com/" style="fill-rule:evenodd;clip-rule:evenodd;stroke-linecap:round;stroke-linejoin:round;stroke-miterlimit:1.5;">
    <g transform="matrix(1,0,0,1,-9.90064,19.9306)">
        <path d="M563.709,398.644L557.873,381.422L544.088,366.1L518.198,352.386L498.957,344.778L475.167,338.84L454.319,335.501L427.774,332.853L399.636,331.913L368.337,333.527L336.873,338.631L303.916,347.784L282.941,355.741L267.789,364.451L253.556,376.222L246.018,388.774L243.373,398.644L244.04,355.563L241.989,351.166L242.035,311.259L244.986,298.842L251.451,287.343L253.464,286.009L262.327,276.479L266.651,276.426L268.12,270.499L282.918,261.32L285.207,263.007L285.658,270.965L288.404,270.283L289.422,257.283L292.9,255.231L293.83,246.796L295.513,240.748L298.544,234.712L302.741,228.162L310.888,219.66L321.277,211.398L331.76,203.642L330.683,202.125L352.176,163.29L363.775,176.774L369.199,172.572L369.469,153.25L367.251,148.987L367.734,142.616L373.12,130.44L381.908,100.134L382.336,87.382L381.411,84.128L384.371,82.664L386.716,84.731L385.173,87.834L385.984,100.066L388.812,108.905L401.501,50.285L401.211,47.574L401.023,44.312L398.378,41.41L398.583,37.038L404.007,32.337L410.377,37.267L407.018,44.378L407.845,48.922L406.797,50.546L412.233,73.02L417.594,74.321L415.362,78.297L422.493,115.844L423.855,101.124L422.801,97.687L424.694,95.609L428.528,97.238L427.444,101.261L427.584,111.156L435.753,143.734L440.581,154.253L440.58,162.07L437.567,165.55L437.784,170.369L487.097,211.283L513.147,204.664L519.522,246.297L515.31,247.054L515.518,266.327L518.211,268.392L518.016,258.403L521.417,258.559L534.558,265.931L537.323,269.969L537.287,273.277L539.077,274.178L540.371,272.646L553.001,285.196L553.289,289.656L556.886,289.616L562.358,300.438L565.214,310.203L563.709,398.644Z" style="fill:none;stroke:white;stroke-width:8.33px;"/>
        <path d="M274.933,715.204L274.933,493.925L266.77,489.21L258.957,482.161L255.531,468.171L256.433,461.509L242.997,445.619L242.948,435.671L242.955,422.348L251.527,412.339L260.635,405.655L281.306,393.978L296.4,388.233L327.063,380.036L351.776,376.289L377.68,373.687L404.614,372.762L430.089,373.536L449.031,375.014L468.822,377.655L485.939,380.902L507.026,386.105L522.231,391.425L538.126,399.308L553.784,410.754L563.371,424.024L563.031,439.139L551.689,456.595L550.685,472.667L541.495,485.326L532.841,493.925L532.841,715.204" style="fill:none;stroke:white;stroke-width:8.33px;"/>
    </g>
</svg>
