<?xml version="1.0" encoding="UTF-8" standalone="no"?>
<!DOCTYPE svg PUBLIC "-//W3C//DTD SVG 1.1//EN" "http://www.w3.org/Graphics/SVG/1.1/DTD/svg11.dtd">
<svg width="100%" height="100%" viewBox="0 0 315 315" version="1.1" xmlns="http://www.w3.org/2000/svg" xmlns:xlink="http://www.w3.org/1999/xlink" xml:space="preserve" xmlns:serif="http://www.serif.com/" style="fill-rule:evenodd;clip-rule:evenodd;stroke-linejoin:round;stroke-miterlimit:2;">
    <path d="M122.387,153.575C125.462,156.65 125.462,161.635 122.387,164.71C102.646,184.451 37.175,249.922 37.175,249.922C35.701,251.396 34.875,253.396 34.877,255.482C34.879,257.568 35.71,259.569 37.187,261.046C42.038,265.898 49.038,272.898 53.89,277.749C55.367,279.226 57.368,280.057 59.454,280.059C61.54,280.061 63.54,279.235 65.014,277.761C65.014,277.761 130.485,212.29 150.226,192.549C153.301,189.474 158.286,189.474 161.361,192.549C181.102,212.29 246.573,277.761 246.573,277.761C248.047,279.235 250.047,280.061 252.133,280.059C254.219,280.057 256.22,279.226 257.697,277.749C262.549,272.898 269.549,265.898 274.4,261.046C275.877,259.569 276.708,257.568 276.71,255.482C276.712,253.396 275.886,251.396 274.412,249.922C274.412,249.922 208.941,184.451 189.2,164.71C186.125,161.635 186.125,156.65 189.2,153.575C208.941,133.834 274.412,68.363 274.412,68.363C275.886,66.889 276.712,64.889 276.71,62.803C276.708,60.717 275.877,58.716 274.4,57.239C269.549,52.387 262.549,45.387 257.697,40.536C256.22,39.059 254.219,38.228 252.133,38.226C250.047,38.224 248.047,39.05 246.573,40.524C246.573,40.524 181.102,105.995 161.361,125.736C158.286,128.811 153.301,128.811 150.226,125.736C130.485,105.995 65.014,40.524 65.014,40.524C63.54,39.05 61.54,38.224 59.454,38.226C57.368,38.228 55.367,39.059 53.89,40.536C49.038,45.387 42.038,52.387 37.187,57.239C35.71,58.716 34.879,60.717 34.877,62.803C34.875,64.889 35.701,66.889 37.175,68.363C37.175,68.363 102.646,133.834 122.387,153.575Z" style="fill:rgb(246,246,246);"/>
</svg>
