<?xml version="1.0" encoding="UTF-8" standalone="no"?>
<!DOCTYPE svg PUBLIC "-//W3C//DTD SVG 1.1//EN" "http://www.w3.org/Graphics/SVG/1.1/DTD/svg11.dtd">
<svg width="100%" height="100%" viewBox="0 0 315 315" version="1.1" xmlns="http://www.w3.org/2000/svg" xmlns:xlink="http://www.w3.org/1999/xlink" xml:space="preserve" xmlns:serif="http://www.serif.com/" style="fill-rule:evenodd;clip-rule:evenodd;stroke-linejoin:round;stroke-miterlimit:2;">
    <g transform="matrix(0.833211,0.833211,-0.833211,0.833211,150.926,-99.0184)">
        <path d="M150.803,279.907C152.242,282.209 154.765,283.608 157.48,283.608C160.195,283.608 162.719,282.209 164.157,279.907C168.277,273.316 173.224,265.401 175.659,261.504C175.963,261.018 175.979,260.407 175.701,259.906C175.424,259.405 174.896,259.094 174.324,259.094C167.064,259.094 147.896,259.094 140.637,259.094C140.064,259.094 139.537,259.405 139.259,259.906C138.982,260.407 138.998,261.018 139.301,261.504C141.737,265.401 146.684,273.316 150.803,279.907ZM177.165,56.693C177.165,56.275 176.999,55.875 176.704,55.579C176.409,55.284 176.008,55.118 175.591,55.118C169.26,55.118 145.701,55.118 139.37,55.118C138.952,55.118 138.552,55.284 138.257,55.579C137.961,55.875 137.795,56.275 137.795,56.693C137.795,74.24 137.795,232.847 137.795,250.394C137.795,250.811 137.961,251.212 138.257,251.507C138.552,251.803 138.952,251.969 139.37,251.969C145.701,251.969 169.26,251.969 175.591,251.969C176.008,251.969 176.409,251.803 176.704,251.507C176.999,251.212 177.165,250.811 177.165,250.394C177.165,232.847 177.165,74.24 177.165,56.693ZM177.165,24.244C177.165,19.895 173.64,16.37 169.291,16.37L145.669,16.37C141.321,16.37 137.795,19.895 137.795,24.244L137.795,46.291C137.795,47.161 138.5,47.866 139.37,47.866C145.701,47.866 169.26,47.866 175.591,47.866C176.46,47.866 177.165,47.161 177.165,46.291C177.165,42.323 177.165,31.699 177.165,24.244Z" style="fill:rgb(246,246,246);"/>
    </g>
</svg>
