<?xml version="1.0" encoding="UTF-8" standalone="no"?>
<!DOCTYPE svg PUBLIC "-//W3C//DTD SVG 1.1//EN" "http://www.w3.org/Graphics/SVG/1.1/DTD/svg11.dtd">
<svg width="100%" height="100%" viewBox="0 0 36 36" version="1.1" xmlns="http://www.w3.org/2000/svg" xmlns:xlink="http://www.w3.org/1999/xlink" xml:space="preserve" xmlns:serif="http://www.serif.com/" style="fill-rule:evenodd;clip-rule:evenodd;stroke-linejoin:round;stroke-miterlimit:2;">
    <g>
        <g transform="matrix(0.818882,-0.818882,0.997206,0.997206,0.902017,23.6771)">
            <path d="M33.169,5.753C33.169,5.323 32.961,4.912 32.592,4.608C32.222,4.305 31.721,4.134 31.198,4.134C29.919,4.134 28.488,4.134 28.488,4.134L28.488,8.397L31.198,8.397C31.721,8.397 32.222,8.227 32.592,7.923C32.961,7.62 33.169,7.208 33.169,6.779C33.169,6.443 33.169,6.089 33.169,5.753Z" style="fill:white;"/>
        </g>
        <g transform="matrix(0.84495,0.84495,-0.775948,0.775948,16.2046,-4.83372)">
            <path d="M17.639,0.214L12.758,0.214L12.758,30.439C12.758,30.55 12.776,30.661 12.813,30.765C13.059,31.461 14.056,34.288 14.596,35.817C14.656,35.988 14.803,36.103 14.971,36.109C15.138,36.116 15.293,36.014 15.365,35.849C16.017,34.346 17.236,31.537 17.559,30.792C17.612,30.671 17.639,30.538 17.639,30.403C17.639,27.752 17.639,0.214 17.639,0.214Z" style="fill:white;"/>
        </g>
    </g>
</svg>
