<?xml version="1.0" encoding="UTF-8" standalone="no"?>
<!DOCTYPE svg PUBLIC "-//W3C//DTD SVG 1.1//EN" "http://www.w3.org/Graphics/SVG/1.1/DTD/svg11.dtd">
<svg width="100%" height="100%" viewBox="0 0 36 36" version="1.1" xmlns="http://www.w3.org/2000/svg" xmlns:xlink="http://www.w3.org/1999/xlink" xml:space="preserve" xmlns:serif="http://www.serif.com/" style="fill-rule:evenodd;clip-rule:evenodd;stroke-linejoin:round;stroke-miterlimit:2;">
    <g>
        <path d="M27.385,3.913L4.376,3.913C1.959,3.913 0,5.872 -0,8.289C-0,13.578 -0,22.422 -0,27.711C0,30.128 1.959,32.087 4.376,32.087C11.299,32.087 24.701,32.087 31.624,32.087C34.041,32.087 36,30.128 36,27.711C36,22.422 36,13.578 36,8.289C36,7.037 35.474,5.907 34.63,5.109C34.573,5.199 34.505,5.284 34.426,5.363L32.795,6.994C32.814,7.012 32.833,7.03 32.852,7.048C33.363,7.559 33.65,8.253 33.65,8.976L33.65,27.024C33.65,27.747 33.363,28.441 32.852,28.952C32.341,29.463 31.647,29.75 30.924,29.75L5.076,29.75C4.353,29.75 3.659,29.463 3.148,28.952C2.637,28.441 2.35,27.747 2.35,27.024L2.35,8.976C2.35,8.253 2.637,7.559 3.148,7.048C3.659,6.537 4.353,6.25 5.076,6.25L25.048,6.25L27.385,3.913Z" style="fill:white;"/>
        <g transform="matrix(0.515034,0,0,0.515034,17.4291,-0.970045)">
            <g transform="matrix(0.818882,-0.818882,0.997206,0.997206,0.902017,23.6771)">
                <path d="M33.169,6.266C33.169,5.088 32.007,4.134 30.573,4.134C29.494,4.134 28.488,4.134 28.488,4.134L28.488,8.397L30.573,8.397C32.007,8.397 33.169,7.443 33.169,6.266C33.169,6.266 33.169,6.266 33.169,6.266Z" style="fill:white;"/>
            </g>
            <g transform="matrix(0.84495,0.84495,-0.775948,0.775948,16.2046,-4.83372)">
                <path d="M17.639,0.214L12.758,0.214L12.758,30.279C12.758,30.496 12.794,30.711 12.866,30.914C13.117,31.628 13.76,33.449 14.265,34.881C14.382,35.212 14.668,35.435 14.993,35.448C15.318,35.461 15.619,35.262 15.758,34.942C16.369,33.535 17.154,31.725 17.483,30.967C17.586,30.73 17.639,30.472 17.639,30.211C17.639,26.642 17.639,0.214 17.639,0.214Z" style="fill:white;"/>
            </g>
        </g>
    </g>
</svg>
