<?xml version="1.0" encoding="UTF-8" standalone="no"?>
<!DOCTYPE svg PUBLIC "-//W3C//DTD SVG 1.1//EN" "http://www.w3.org/Graphics/SVG/1.1/DTD/svg11.dtd">
<svg width="100%" height="100%" viewBox="0 0 36 36" version="1.1" xmlns="http://www.w3.org/2000/svg" xmlns:xlink="http://www.w3.org/1999/xlink" xml:space="preserve" xmlns:serif="http://www.serif.com/" style="fill-rule:evenodd;clip-rule:evenodd;stroke-linejoin:round;stroke-miterlimit:2;">
    <g>
        <path d="M36,8.289C36,5.872 34.041,3.913 31.624,3.913C24.701,3.913 11.299,3.913 4.376,3.913C1.959,3.913 0,5.872 -0,8.289C-0,13.578 -0,22.422 -0,27.711C0,30.128 1.959,32.087 4.376,32.087C11.299,32.087 24.701,32.087 31.624,32.087C34.041,32.087 36,30.128 36,27.711C36,22.422 36,13.578 36,8.289ZM33.65,8.976C33.65,8.253 33.363,7.559 32.852,7.048C32.341,6.537 31.647,6.25 30.924,6.25L5.076,6.25C4.353,6.25 3.659,6.537 3.148,7.048C2.637,7.559 2.35,8.253 2.35,8.976L2.35,27.024C2.35,27.747 2.637,28.441 3.148,28.952C3.659,29.463 4.353,29.75 5.076,29.75L30.924,29.75C31.647,29.75 32.341,29.463 32.852,28.952C33.363,28.441 33.65,27.747 33.65,27.024L33.65,8.976Z" style="fill:white;"/>
        <g transform="matrix(1.0405,0,0,1.06122,-0.94518,-0.753558)">
            <rect x="2.35" y="12.489" width="31.3" height="2.356" style="fill:white;"/>
        </g>
        <g transform="matrix(1.0405,0,0,1.06122,-0.94518,7.74644)">
            <rect x="2.35" y="12.489" width="31.3" height="2.356" style="fill:white;"/>
        </g>
        <g transform="matrix(0.0798722,0,0,10.4714,16.5623,-125.136)">
            <rect x="2.35" y="12.489" width="31.3" height="2.356" style="fill:white;"/>
        </g>
    </g>
</svg>
