<?xml version="1.0" encoding="UTF-8" standalone="no"?>
<!DOCTYPE svg PUBLIC "-//W3C//DTD SVG 1.1//EN" "http://www.w3.org/Graphics/SVG/1.1/DTD/svg11.dtd">
<svg width="100%" height="100%" viewBox="0 0 36 36" version="1.1" xmlns="http://www.w3.org/2000/svg" xmlns:xlink="http://www.w3.org/1999/xlink" xml:space="preserve" xmlns:serif="http://www.serif.com/" style="fill-rule:evenodd;clip-rule:evenodd;stroke-linejoin:round;stroke-miterlimit:2;">
    <g>
        <g transform="matrix(0.798479,0,0,0.819191,-6.30961,3.25456)">
            <path d="M8.258,18.852C7.784,18.378 7.784,17.622 8.258,17.148C10.179,15.226 14.683,10.722 14.683,10.722C15.268,10.137 16.217,10.137 16.802,10.722C16.802,10.723 16.803,10.723 16.803,10.724C17.085,11.005 17.243,11.386 17.243,11.784C17.243,12.182 17.085,12.564 16.803,12.845L13.148,16.5L33.954,16.5C34.782,16.5 35.454,17.172 35.454,18C35.454,18.828 34.782,19.5 33.954,19.5L13.148,19.5L16.805,23.156C17.39,23.742 17.39,24.69 16.805,25.275C16.804,25.276 16.803,25.277 16.802,25.278C16.217,25.863 15.268,25.863 14.683,25.278C14.683,25.278 10.179,20.774 8.258,18.852Z" style="fill:white;"/>
        </g>
        <path d="M9.6,12.7C9.6,12.833 9.653,12.96 9.746,13.054C9.84,13.147 9.967,13.2 10.1,13.2C10.511,13.2 11.089,13.2 11.5,13.2C11.633,13.2 11.76,13.147 11.854,13.054C11.947,12.96 12,12.833 12,12.7C12,11.098 12,6.197 12,6.197C12,5.508 12.274,4.848 12.761,4.361C13.248,3.874 13.908,3.6 14.597,3.6C18.752,3.6 26.848,3.6 31.003,3.6C31.692,3.6 32.352,3.874 32.839,4.361C33.326,4.848 33.6,5.508 33.6,6.197C33.6,11.669 33.6,24.331 33.6,29.803C33.6,30.492 33.326,31.152 32.839,31.639C32.352,32.126 31.692,32.4 31.003,32.4C26.848,32.4 18.752,32.4 14.597,32.4C13.908,32.4 13.248,32.126 12.761,31.639C12.274,31.152 12,30.492 12,29.803C12,29.803 12,24.902 12,23.3C12,23.167 11.947,23.04 11.854,22.946C11.76,22.853 11.633,22.8 11.5,22.8C11.089,22.8 10.511,22.8 10.1,22.8C9.967,22.8 9.84,22.853 9.746,22.946C9.653,23.04 9.6,23.167 9.6,23.3C9.6,24.977 9.6,30.296 9.6,30.296C9.6,31.491 10.075,32.636 10.919,33.481C11.764,34.326 12.909,34.8 14.104,34.8C18.959,34.8 26.641,34.8 31.496,34.8C32.691,34.8 33.836,34.326 34.681,33.481C35.525,32.636 36,31.491 36,30.296C36,23.868 36,12.132 36,5.704C36,4.509 35.525,3.364 34.681,2.519C33.836,1.674 32.691,1.2 31.496,1.2C26.641,1.2 18.959,1.2 14.104,1.2C12.909,1.2 11.764,1.674 10.919,2.519C10.075,3.364 9.6,4.509 9.6,5.704C9.6,5.704 9.6,11.023 9.6,12.7Z" style="fill:white;"/>
    </g>
</svg>
