<?xml version="1.0" encoding="UTF-8" standalone="no"?>
<!DOCTYPE svg PUBLIC "-//W3C//DTD SVG 1.1//EN" "http://www.w3.org/Graphics/SVG/1.1/DTD/svg11.dtd">
<svg width="100%" height="100%" viewBox="0 0 315 315" version="1.1" xmlns="http://www.w3.org/2000/svg" xmlns:xlink="http://www.w3.org/1999/xlink" xml:space="preserve" xmlns:serif="http://www.serif.com/" style="fill-rule:evenodd;clip-rule:evenodd;stroke-linejoin:round;stroke-miterlimit:2;">
    <path d="M157.989,0.001C244.678,0.282 314.961,70.738 314.961,157.48C314.961,244.222 244.678,314.678 157.989,314.96L157.48,314.961C70.565,314.961 0,244.396 0,157.48C0,70.565 70.565,0 157.48,0L157.989,0.001ZM255.776,254.985C244.485,242.782 230.949,232.688 215.83,225.356C213.547,224.249 211.939,222.109 211.512,219.608C211.084,217.108 211.89,214.555 213.675,212.753C227.849,198.472 236.597,178.808 236.597,157.117C236.597,113.451 201.146,78 157.48,78C113.814,78 78.363,113.451 78.363,157.117C78.363,178.808 87.111,198.472 101.268,212.77C103.048,214.566 103.851,217.111 103.425,219.604C102.999,222.096 101.396,224.23 99.12,225.333C84.009,232.684 70.475,242.781 59.185,254.984C34.352,229.955 19,195.496 19,157.48C19,81.051 81.051,19 157.48,19C233.91,19 295.961,81.051 295.961,157.48C295.961,195.496 280.609,229.955 255.776,254.985Z" style="fill:rgb(246,246,246);"/>
</svg>
