<?xml version="1.0" encoding="UTF-8" standalone="no"?>
<!DOCTYPE svg PUBLIC "-//W3C//DTD SVG 1.1//EN" "http://www.w3.org/Graphics/SVG/1.1/DTD/svg11.dtd">
<svg width="100%" height="100%" viewBox="0 0 36 36" version="1.1" xmlns="http://www.w3.org/2000/svg" xmlns:xlink="http://www.w3.org/1999/xlink" xml:space="preserve" xmlns:serif="http://www.serif.com/" style="fill-rule:evenodd;clip-rule:evenodd;stroke-linejoin:round;stroke-miterlimit:2;">
    <g>
        <g transform="matrix(0.863661,0,0,0.822407,4.42722,3.46649)">
            <rect x="19.384" y="17.064" width="12.238" height="1.872" style="fill:white;"/>
        </g>
        <g transform="matrix(0.43183,-0.747952,0.712225,0.411203,-10.5249,37.3982)">
            <rect x="19.384" y="17.064" width="12.238" height="1.872" style="fill:white;"/>
        </g>
        <g transform="matrix(0.43183,-0.747952,0.712225,0.411203,-10.1869,37.2692)">
            <rect x="19.384" y="17.064" width="12.238" height="1.872" style="fill:white;"/>
        </g>
        <g transform="matrix(0.43183,0.747952,-0.712225,0.411203,15.1786,-15.9233)">
            <rect x="19.384" y="17.064" width="12.238" height="1.872" style="fill:white;"/>
        </g>
        <path d="M18,13.79C20.323,13.79 22.21,15.677 22.21,18C22.21,20.323 20.323,22.21 18,22.21C15.677,22.21 13.79,20.323 13.79,18C13.79,15.677 15.677,13.79 18,13.79ZM18,15.905C19.156,15.905 20.095,16.844 20.095,18C20.095,19.156 19.156,20.095 18,20.095C16.844,20.095 15.905,19.156 15.905,18C15.905,16.844 16.844,15.905 18,15.905Z" style="fill:white;"/>
        <path d="M18,2.536C26.535,2.536 33.464,9.465 33.464,18C33.464,26.535 26.535,33.464 18,33.464C9.465,33.464 2.536,26.535 2.536,18C2.536,9.465 9.465,2.536 18,2.536ZM18,4.683C25.35,4.683 31.317,10.65 31.317,18C31.317,25.35 25.35,31.317 18,31.317C10.65,31.317 4.683,25.35 4.683,18C4.683,10.65 10.65,4.683 18,4.683Z" style="fill:white;"/>
        <g transform="matrix(1.88289,-0.28569,0.162683,1.07219,-13.6195,4.26452)">
            <path d="M14.835,0.827C14.905,0.599 15.038,0.451 15.186,0.44C15.333,0.428 15.474,0.553 15.555,0.77C15.881,1.637 16.295,2.737 16.295,2.737L14.242,2.763C14.242,2.763 14.569,1.694 14.835,0.827Z" style="fill:white;"/>
        </g>
        <g transform="matrix(1.87756,0.31883,-0.181554,1.06915,-6.99993,-4.93999)">
            <path d="M14.662,1.009C14.744,0.813 14.876,0.7 15.015,0.709C15.153,0.717 15.281,0.845 15.355,1.05C15.64,1.838 16.006,2.852 16.006,2.852L13.886,2.863C13.886,2.863 14.328,1.806 14.662,1.009Z" style="fill:white;"/>
        </g>
        <g transform="matrix(1.87756,0.31883,-0.181554,1.06915,-6.99993,-4.93999)">
            <path d="M17.918,1.829C18.037,1.705 18.183,1.691 18.309,1.793C18.435,1.895 18.524,2.1 18.547,2.34C18.634,3.239 18.745,4.383 18.745,4.383L16.727,3.076C16.727,3.076 17.413,2.358 17.918,1.829Z" style="fill:white;"/>
        </g>
        <g transform="matrix(1.87756,0.31883,-0.181554,1.06915,-6.99993,-4.93999)">
            <path d="M20.873,3.978C21.017,3.867 21.184,3.907 21.306,4.082C21.428,4.257 21.484,4.536 21.452,4.807C21.301,6.053 21.106,7.678 21.106,7.678L19.424,5.088C19.424,5.088 20.236,4.466 20.873,3.978Z" style="fill:white;"/>
        </g>
        <g transform="matrix(1.87756,0.31883,-0.181554,1.06915,-6.99993,-4.93999)">
            <path d="M22.901,8.556C23.056,8.518 23.211,8.635 23.301,8.859C23.392,9.083 23.404,9.378 23.333,9.623C23.011,10.724 22.596,12.146 22.596,12.146L21.631,8.866C21.631,8.866 22.318,8.698 22.901,8.556Z" style="fill:white;"/>
        </g>
        <g transform="matrix(1.87756,0.31883,-0.181554,1.06915,-6.99993,-4.93999)">
            <path d="M23.983,13.758C24.115,13.862 24.208,14.077 24.228,14.329C24.249,14.58 24.194,14.833 24.083,14.997C23.641,15.65 23.074,16.489 23.074,16.489L22.715,12.768C22.715,12.768 23.434,13.33 23.983,13.758Z" style="fill:white;"/>
        </g>
        <g transform="matrix(1.87756,0.31883,-0.181554,1.06915,-6.99993,-4.93999)">
            <path d="M24.277,19.918C24.397,20.106 24.445,20.4 24.4,20.672C24.356,20.944 24.226,21.147 24.067,21.195C23.419,21.388 22.64,21.62 22.64,21.62L23.06,18.006C23.06,18.006 23.738,19.071 24.277,19.918Z" style="fill:white;"/>
        </g>
        <g transform="matrix(1.87756,0.31883,-0.181554,1.06915,-6.99993,-4.93999)">
            <path d="M23.226,24.853C23.313,25.087 23.317,25.386 23.238,25.627C23.158,25.868 23.008,26.01 22.85,25.993C22.172,25.923 21.328,25.836 21.328,25.836L22.41,22.66C22.41,22.66 22.861,23.872 23.226,24.853Z" style="fill:white;"/>
        </g>
        <g transform="matrix(1.87756,0.31883,-0.181554,1.06915,-6.99993,-4.93999)">
            <path d="M21.259,29.254C21.3,29.517 21.255,29.8 21.141,29.987C21.028,30.174 20.864,30.235 20.717,30.146C20.042,29.739 19.157,29.204 19.157,29.204L20.87,26.768C20.87,26.768 21.086,28.15 21.259,29.254Z" style="fill:white;"/>
        </g>
        <g transform="matrix(1.87756,0.31883,-0.181554,1.06915,-6.99993,-4.93999)">
            <path d="M18.445,32.141C18.426,32.403 18.329,32.628 18.191,32.73C18.052,32.832 17.892,32.796 17.773,32.635C17.243,31.923 16.543,30.982 16.543,30.982L18.616,29.73C18.616,29.73 18.521,31.075 18.445,32.141Z" style="fill:white;"/>
        </g>
        <g transform="matrix(1.87756,0.31883,-0.181554,1.06915,-6.99993,-4.93999)">
            <path d="M15.194,33.458C15.113,33.655 14.982,33.769 14.844,33.764C14.706,33.758 14.578,33.634 14.502,33.431C14.14,32.465 13.615,31.062 13.615,31.062L16.165,31.097C16.165,31.097 15.587,32.502 15.194,33.458Z" style="fill:white;"/>
        </g>
        <g transform="matrix(1.87756,0.31883,-0.181554,1.06915,-6.99993,-4.93999)">
            <path d="M11.969,33.002C11.853,33.2 11.683,33.263 11.531,33.165C11.379,33.066 11.273,32.823 11.258,32.539C11.191,31.224 11.104,29.544 11.104,29.544L13.192,30.916C13.192,30.916 12.507,32.085 11.969,33.002Z" style="fill:white;"/>
        </g>
        <g transform="matrix(1.87756,0.31883,-0.181554,1.06915,-6.99993,-4.93999)">
            <path d="M9.183,30.204C9.068,30.274 8.94,30.241 8.841,30.115C8.742,29.99 8.684,29.787 8.686,29.572C8.699,28.283 8.72,26.124 8.72,26.124L10.786,29.226C10.786,29.226 9.807,29.823 9.183,30.204Z" style="fill:white;"/>
        </g>
        <g transform="matrix(1.87756,0.31883,-0.181554,1.06915,-6.99993,-4.93999)">
            <path d="M6.997,25.914C6.836,25.966 6.673,25.851 6.578,25.617C6.483,25.383 6.474,25.073 6.555,24.824C6.929,23.67 7.4,22.215 7.4,22.215L8.417,25.447C8.417,25.447 7.648,25.7 6.997,25.914Z" style="fill:white;"/>
        </g>
        <g transform="matrix(1.87756,0.31883,-0.181554,1.06915,-6.99993,-4.93999)">
            <path d="M5.809,19.067C5.707,19.234 5.659,19.479 5.681,19.72C5.703,19.962 5.792,20.169 5.918,20.272C6.468,20.726 7.225,21.35 7.225,21.35L6.84,17.368C6.84,17.368 6.245,18.348 5.809,19.067Z" style="fill:white;"/>
        </g>
        <g transform="matrix(1.87756,0.31883,-0.181554,1.06915,-6.99993,-4.93999)">
            <path d="M5.758,13.617C5.624,13.716 5.529,13.928 5.506,14.178C5.482,14.429 5.534,14.683 5.643,14.851C6.144,15.626 6.839,16.7 6.839,16.7L7.248,12.52C7.248,12.52 6.38,13.159 5.758,13.617Z" style="fill:white;"/>
        </g>
        <g transform="matrix(1.87756,0.31883,-0.181554,1.06915,-6.99993,-4.93999)">
            <path d="M7.042,8.254C6.896,8.266 6.763,8.411 6.693,8.637C6.622,8.864 6.624,9.138 6.698,9.361C7.017,10.327 7.44,11.609 7.44,11.609L8.601,8.129C8.601,8.129 7.704,8.201 7.042,8.254Z" style="fill:white;"/>
        </g>
        <g transform="matrix(1.87756,0.31883,-0.181554,1.06915,-6.99993,-4.93999)">
            <path d="M9.187,4.011C9.032,3.913 8.858,3.983 8.743,4.191C8.628,4.399 8.593,4.706 8.654,4.975C8.876,5.967 9.125,7.077 9.125,7.077L10.848,5.064C10.848,5.064 9.92,4.476 9.187,4.011Z" style="fill:white;"/>
        </g>
    </g>
</svg>
