<?xml version="1.0" encoding="UTF-8" standalone="no"?>
<!DOCTYPE svg PUBLIC "-//W3C//DTD SVG 1.1//EN" "http://www.w3.org/Graphics/SVG/1.1/DTD/svg11.dtd">
<svg width="100%" height="100%" viewBox="0 0 36 36" version="1.1" xmlns="http://www.w3.org/2000/svg" xmlns:xlink="http://www.w3.org/1999/xlink" xml:space="preserve" xmlns:serif="http://www.serif.com/" style="fill-rule:evenodd;clip-rule:evenodd;stroke-linejoin:round;stroke-miterlimit:2;">
    <g>
        <path d="M36,8.289C36,5.872 34.041,3.913 31.624,3.913C24.701,3.913 11.299,3.913 4.376,3.913C1.959,3.913 0,5.872 -0,8.289C-0,13.578 -0,22.422 -0,27.711C0,30.128 1.959,32.087 4.376,32.087C11.299,32.087 24.701,32.087 31.624,32.087C34.041,32.087 36,30.128 36,27.711C36,22.422 36,13.578 36,8.289ZM33.65,8.976C33.65,8.253 33.363,7.559 32.852,7.048C32.341,6.537 31.647,6.25 30.924,6.25L5.076,6.25C4.353,6.25 3.659,6.537 3.148,7.048C2.637,7.559 2.35,8.253 2.35,8.976L2.35,27.024C2.35,27.747 2.637,28.441 3.148,28.952C3.659,29.463 4.353,29.75 5.076,29.75L30.924,29.75C31.647,29.75 32.341,29.463 32.852,28.952C33.363,28.441 33.65,27.747 33.65,27.024L33.65,8.976Z" style="fill:white;"/>
        <g transform="matrix(1.03654,0,0,1.03654,1.82683,-4.02613)">
            <g transform="matrix(16,0,0,16,6.31398,26.4567)">
                <path d="M0.376,0.012C0.421,0.012 0.463,0.006 0.5,-0.007L0.552,0.066L0.692,0.066L0.601,-0.063C0.675,-0.126 0.716,-0.226 0.716,-0.352L0.716,-0.353C0.716,-0.577 0.585,-0.717 0.376,-0.717C0.168,-0.717 0.037,-0.577 0.037,-0.353L0.037,-0.352C0.037,-0.128 0.167,0.012 0.376,0.012ZM0.376,-0.113C0.261,-0.113 0.187,-0.205 0.187,-0.352L0.187,-0.353C0.187,-0.5 0.261,-0.592 0.376,-0.592C0.492,-0.592 0.565,-0.5 0.565,-0.353L0.565,-0.352C0.565,-0.281 0.548,-0.222 0.517,-0.181L0.475,-0.242L0.334,-0.242L0.422,-0.118C0.408,-0.115 0.392,-0.113 0.376,-0.113Z" style="fill:white;fill-rule:nonzero;"/>
            </g>
            <g transform="matrix(16,0,0,16,18.353,26.4567)">
                <path d="M0.226,-0L0.372,-0L0.372,-0.705L0.226,-0.705L0.043,-0.578L0.043,-0.447L0.223,-0.569L0.226,-0.569L0.226,-0Z" style="fill:white;fill-rule:nonzero;"/>
            </g>
        </g>
    </g>
</svg>
